<svg version="1.1"
	 xmlns="http://www.w3.org/2000/svg" xmlns:xlink="http://www.w3.org/1999/xlink" xmlns:a="http://ns.adobe.com/AdobeSVGViewerExtensions/3.0/"
	 x="0px" y="0px" width="10px" height="10px" viewBox="0 0 5000 4900" style="enable-background:new 0 0 5000 4900;"
	 xml:space="preserve">
<style type="text/css">
	.d_icon{
		fill:#F8F8F8;
	}
</style>
<defs>
</defs>
<path class="d_icon" d="M3582.5,0C4430,0,5000,583.1,5000,1448v2001.6c0,867.3-570,1450.4-1417.5,1450.4H1415
	C567.7,4900,0,4316.9,0,3449.6V1448C0,583.1,567.7,0,1415,0H3582.5z M2500,1266.7c-105,0-187.5,80.8-187.5,183.7v1555.8L1695,2398.6
	c-35-34.3-85-53.9-132.5-53.9c-47.2,0-95,19.6-132.5,53.9c-72.5,71-72.5,188.6,0,259.7l937.5,923.6c70,68.6,195,68.6,265,0
	l937.5-923.6c72.5-71.1,72.5-188.7,0-259.7c-75-71.1-192.5-71.1-267.5,0c-75,71-615,607.6-615,607.6V1450.4
	C2687.5,1347.5,2602.5,1266.7,2500,1266.7z"/>
</svg>
